# xmcd CD database file
#
# Track frame offsets:
#	150
#	17917
#	45711
#	64612
#	77111
#	93940
#	114549
#	130545
#	156289
#	185616
#	206165
#	227569
#
# Disc length: 3289 seconds
#
# Revision: 0
# Processed by: cddbd v1.5.2PL0 Copyright (c) Steve Scherf et al.
# Submitted via: CDex 1.70beta2
#
DISCID=9a0cd70c
DTITLE=Varios Artis - African Jazz - Recorded live at the Bassline Jazz Club Jo'burg ZA
DYEAR=2002
DGENRE=Jazz
TTITLE0=L. Mbulu and C. Ncokane - M'RA
TTITLE1=M. Makeba and J. Ragevoy - PATA PATA
TTITLE2=A. Salinga - NTJILO NTJILO
TTITLE3=HI Galeta - HEADING HOME
TTITLE4=A Ibrahim - TSAKWE
TTITLE5=F. Williams - MALAIKA
TTITLE6=S. Vilakazi - MEADOWLANDS
TTITLE7=MW Ingozi - YAKHAL' INKOMO
TTITLE8=A. Ibrahim - MANNENBERG
TTITLE9=M. Davashe - LAKU TSKON' ILANGA
TTITLE10=A. Musarurwa - SKOKIAAN
TTITLE11=Monday's Jazz Quintet - THE MAN FROM THE BASSLINE
EXTD=YEAR: 2002
EXTT0=
EXTT1=
EXTT2=
EXTT3=
EXTT4=
EXTT5=
EXTT6=
EXTT7=
EXTT8=
EXTT9=
EXTT10=
EXTT11=
PLAYORDER=
